<?xml version="1.0" encoding="UTF-8"?>
<svg version="1.1" xmlns="http://www.w3.org/2000/svg" width="460" height="85">
<path d="M0 0 C3.625 0.1875 3.625 0.1875 6.625 2.1875 C7.28703939 4.59491596 7.625 6.69403965 7.625 9.1875 C8.5325 9.084375 9.44 8.98125 10.375 8.875 C13.625 9.1875 13.625 9.1875 16.0625 11.3125 C17.625 14.1875 17.625 14.1875 17.5 17.375 C16.625 20.1875 16.625 20.1875 14.625 22.1875 C12 22.8125 12 22.8125 9.625 23.1875 C9.893125 23.744375 10.16125 24.30125 10.4375 24.875 C10.625 27.1875 10.625 27.1875 8.625 29.5625 C7.0872383 30.90804149 5.54751108 32.25195168 3.9765625 33.55859375 C0.89800814 36.12869909 -1.90149944 38.68840033 -4.5 41.75 C-7.87604182 45.71183904 -11.46424062 49.42839042 -15.125 53.125 C-15.69234863 53.70515869 -16.25969727 54.28531738 -16.84423828 54.88305664 C-21.01967346 59.06905782 -21.01967346 59.06905782 -24.375 60.1875 C-25.035 59.5275 -25.695 58.8675 -26.375 58.1875 C-26.375 57.1975 -26.375 56.2075 -26.375 55.1875 C-28.025 54.5275 -29.675 53.8675 -31.375 53.1875 C-31.375 52.5275 -31.375 51.8675 -31.375 51.1875 C-32.035 50.8575 -32.695 50.5275 -33.375 50.1875 C-32.385 48.5375 -31.395 46.8875 -30.375 45.1875 C-32.685 42.8775 -34.995 40.5675 -37.375 38.1875 C-35.48679339 34.41108678 -33.98321997 32.6093321 -31 29.75 C-27.87408077 26.69898299 -25.05876459 23.63805447 -22.375 20.1875 C-20.7313186 18.49816078 -19.0607124 16.83490076 -17.375 15.1875 C-16.70597656 14.4965625 -16.03695312 13.805625 -15.34765625 13.09375 C-14.63480469 12.3615625 -13.92195313 11.629375 -13.1875 10.875 C-12.17623047 9.82892578 -12.17623047 9.82892578 -11.14453125 8.76171875 C-9.375 7.1875 -9.375 7.1875 -7.375 7.1875 C-6.900625 6.218125 -6.42625 5.24875 -5.9375 4.25 C-3.87908401 0.21550467 -3.87908401 0.21550467 0 0 Z M-1.375 13.1875 C-0.58382096 15.18733534 -0.58382096 15.18733534 0.625 17.1875 C1.615 17.5175 2.605 17.8475 3.625 18.1875 C4.285 15.8775 4.945 13.5675 5.625 11.1875 C2.9784665 11.1875 1.0441837 12.16889634 -1.375 13.1875 Z M-1.375 17.1875 C-1.045 17.8475 -0.715 18.5075 -0.375 19.1875 C-0.045 18.5275 0.285 17.8675 0.625 17.1875 C-0.035 17.1875 -0.695 17.1875 -1.375 17.1875 Z M-19.375 36.1875 C-22.015 38.8275 -24.655 41.4675 -27.375 44.1875 C-27.045 44.8475 -26.715 45.5075 -26.375 46.1875 C-23.735 43.5475 -21.095 40.9075 -18.375 38.1875 C-18.705 37.5275 -19.035 36.8675 -19.375 36.1875 Z " fill="#342C2E" transform="translate(55.375,7.8125)"/>
<path d="M0 0 C0.33 1.32 0.66 2.64 1 4 C7.93 4 14.86 4 22 4 C22 2.35 22 0.7 22 -1 C24.25 -2.125 24.25 -2.125 27 -3 C29.3125 -2.125 29.3125 -2.125 31 -1 C31 0.32 31 1.64 31 3 C28.525 2.505 28.525 2.505 26 2 C25.67 2.66 25.34 3.32 25 4 C38.2 4 51.4 4 65 4 C65 4.99 65 5.98 65 7 C64.34 7 63.68 7 63 7 C63 12.28 63 17.56 63 23 C61.68 23 60.36 23 59 23 C59 19.7 59 16.4 59 13 C58.34 13.33 57.68 13.66 57 14 C56.855625 14.804375 56.71125 15.60875 56.5625 16.4375 C56 19 56 19 53 21 C49.67759676 20.6758631 48.39223697 20.39223697 46 18 C45.6875 15 45.6875 15 46 12 C49.31371 9.79086 50.3446021 9.77518447 54.1875 9.875 C55.08855469 9.89304687 55.98960937 9.91109375 56.91796875 9.9296875 C57.60503906 9.95289063 58.29210937 9.97609375 59 10 C59 9.01 59 8.02 59 7 C53.72 7 48.44 7 43 7 C43 12.28 43 17.56 43 23 C41.68 23 40.36 23 39 23 C39 22.01 39 21.02 39 20 C37.329375 20.061875 37.329375 20.061875 35.625 20.125 C32 20 32 20 30 18 C29.875 15.375 29.875 15.375 30 13 C29.34 13 28.68 13 28 13 C28 11.68 28 10.36 28 9 C30.97 9 33.94 9 37 9 C37 10.32 37 11.64 37 13 C36.01 13 35.02 13 34 13 C34.495 14.485 34.495 14.485 35 16 C35.99 16 36.98 16 38 16 C38.33 13.03 38.66 10.06 39 7 C34.38 7 29.76 7 25 7 C25 12.28 25 17.56 25 23 C24.01 23 23.02 23 22 23 C22 17.72 22 12.44 22 7 C20.68 7 19.36 7 18 7 C18 12.28 18 17.56 18 23 C16.68 23 15.36 23 14 23 C13.505 22.01 13.505 22.01 13 21 C10.67284 20.62599214 8.33882138 20.29235267 6 20 C4.10511048 18.10511048 4.81980888 15.42860854 4.76953125 12.91015625 C5 11 5 11 7 9 C10.125 8.875 10.125 8.875 13 9 C13.33 8.34 13.66 7.68 14 7 C10.04 7 6.08 7 2 7 C2 12.28 2 17.56 2 23 C0.68 23 -0.64 23 -2 23 C-2 19.7 -2 16.4 -2 13 C-2.66 13 -3.32 13 -4 13 C-3.87625 14.1446875 -3.87625 14.1446875 -3.75 15.3125 C-4 18 -4 18 -5.625 19.9375 C-8 21 -8 21 -11.25 20.1875 C-12.1575 19.795625 -13.065 19.40375 -14 19 C-14.6875 16.1875 -14.6875 16.1875 -15 13 C-13.84375 11.3125 -13.84375 11.3125 -12 10 C-9.51953125 9.70703125 -9.51953125 9.70703125 -6.8125 9.8125 C-5.91144531 9.83957031 -5.01039063 9.86664063 -4.08203125 9.89453125 C-3.05142578 9.94673828 -3.05142578 9.94673828 -2 10 C-2 9.01 -2 8.02 -2 7 C-7.28 7 -12.56 7 -18 7 C-18 12.28 -18 17.56 -18 23 C-18.99 23 -19.98 23 -21 23 C-21 17.72 -21 12.44 -21 7 C-21.99 7 -22.98 7 -24 7 C-24 6.01 -24 5.02 -24 4 C-23.01 4 -22.02 4 -21 4 C-20.87625 3.38125 -20.7525 2.7625 -20.625 2.125 C-20 0 -20 0 -18 -2 C-11.65250311 -4.35092478 -5.70518802 -3.19490529 0 0 Z M-17 2 C-17 2.66 -17 3.32 -17 4 C-12.38 4 -7.76 4 -3 4 C-5.56182772 0.84357094 -5.56182772 0.84357094 -8.19140625 0.671875 C-8.97386719 0.69765625 -9.75632813 0.7234375 -10.5625 0.75 C-11.34753906 0.76546875 -12.13257813 0.7809375 -12.94140625 0.796875 C-15.06250961 0.88241141 -15.06250961 0.88241141 -17 2 Z M10 12 C9.34 13.32 8.68 14.64 8 16 C9.98 16.99 9.98 16.99 12 18 C12.66 17.34 13.32 16.68 14 16 C13.6814823 13.89179203 13.6814823 13.89179203 13 12 C12.01 12 11.02 12 10 12 Z M-10 13 C-10.33 14.32 -10.66 15.64 -11 17 C-9.68 16.67 -8.36 16.34 -7 16 C-7.33 15.01 -7.66 14.02 -8 13 C-8.66 13 -9.32 13 -10 13 Z M51 13 C50.67 14.32 50.34 15.64 50 17 C50.99 17 51.98 17 53 17 C52.67 15.68 52.34 14.36 52 13 C51.67 13 51.34 13 51 13 Z " fill="#FFFFFF" transform="translate(179,11)"/>
<path d="M0 0 C2.33043558 3.49565336 2.58763244 4.8865729 2 9 C-0.22461782 11.16607525 -2.23377522 12.61688761 -5 14 C-4.34 15.65 -3.68 17.3 -3 19 C-4.28965176 20.37562854 -5.62689293 21.70766393 -7 23 C-7.66 23 -8.32 23 -9 23 C-9.2371875 23.56589844 -9.474375 24.13179687 -9.71875 24.71484375 C-11.28098524 27.50114746 -13.19737443 29.35332514 -15.5 31.5625 C-18.02809153 33.9961985 -20.04672934 36.07009401 -22 39 C-22.66 39 -23.32 39 -24 39 C-24.33 39.99 -24.66 40.98 -25 42 C-27.3125 44.6875 -27.3125 44.6875 -30 47 C-31.32 47 -32.64 47 -34 47 C-36.00401011 47.30830925 -38.00511766 47.63729412 -40 48 C-40.37125 47.071875 -40.37125 47.071875 -40.75 46.125 C-42.20628639 43.64931313 -43.37812506 43.04874998 -46 42 C-46 40.68 -46 39.36 -46 38 C-45.01 38 -44.02 38 -43 38 C-42.72800781 37.41089844 -42.45601562 36.82179687 -42.17578125 36.21484375 C-41.0244625 34.04608053 -39.80016325 32.40493585 -38.1875 30.5625 C-37.70667969 30.00691406 -37.22585937 29.45132813 -36.73046875 28.87890625 C-34.55392382 26.51565995 -32.27673468 24.26712821 -30 22 C-28.77734997 20.74475049 -27.55609767 19.48813865 -26.3359375 18.23046875 C-25.01576114 16.88267914 -23.69544599 15.53502545 -22.375 14.1875 C-21.70726563 13.49462891 -21.03953125 12.80175781 -20.3515625 12.08789062 C-19.38476562 11.1065918 -19.38476562 11.1065918 -18.3984375 10.10546875 C-17.52711182 9.21057739 -17.52711182 9.21057739 -16.63818359 8.29760742 C-15 7 -15 7 -12 7 C-11.9175 6.236875 -11.835 5.47375 -11.75 4.6875 C-11 2 -11 2 -9.375 0.125 C-5.92705069 -1.50823915 -3.62897301 -0.94084486 0 0 Z " fill="#0C8E45" transform="translate(81,28)"/>
<path d="M0 0 C3.3125 0.25 3.3125 0.25 7 1 C7.46575439 1.66290039 7.93150879 2.32580078 8.41137695 3.00878906 C9.8381655 5.21992813 9.8381655 5.21992813 12.36010742 5.54589844 C13.26607666 5.5668457 14.1720459 5.58779297 15.10546875 5.609375 C16.08837891 5.64160156 17.07128906 5.67382812 18.08398438 5.70703125 C19.62022461 5.72830078 19.62022461 5.72830078 21.1875 5.75 C22.74114258 5.79447266 22.74114258 5.79447266 24.32617188 5.83984375 C26.88419312 5.91057245 29.44130158 5.96325257 32 6 C32 6.99 32 7.98 32 9 C31.01 9 30.02 9 29 9 C29 14.28 29 19.56 29 25 C27.68 25 26.36 25 25 25 C25 19.72 25 14.44 25 9 C24.34 9 23.68 9 23 9 C23.020625 10.093125 23.04125 11.18625 23.0625 12.3125 C23 16 23 16 22 19 C15.25 20.125 15.25 20.125 13 19 C13 17.35 13 15.7 13 14 C13.99 14 14.98 14 16 14 C16.66 14.66 17.32 15.32 18 16 C18.33 13.69 18.66 11.38 19 9 C16.03 9 13.06 9 10 9 C10 14.28 10 19.56 10 25 C8.68 25 7.36 25 6 25 C6 19.72 6 14.44 6 9 C5.01 9 4.02 9 3 9 C3 14.28 3 19.56 3 25 C1.68 25 0.36 25 -1 25 C-1.495 23.515 -1.495 23.515 -2 22 C-3.918125 22.061875 -3.918125 22.061875 -5.875 22.125 C-8.0546875 22.1953125 -8.0546875 22.1953125 -10 22 C-12 20 -12 20 -12.3125 17 C-12.209375 16.01 -12.10625 15.02 -12 14 C-11.01 13.34 -10.02 12.68 -9 12 C-8.67 11.01 -8.34 10.02 -8 9 C-10.31 9 -12.62 9 -15 9 C-15 14.28 -15 19.56 -15 25 C-16.32 25 -17.64 25 -19 25 C-19 19.72 -19 14.44 -19 9 C-20.32 9 -21.64 9 -23 9 C-23 14.28 -23 19.56 -23 25 C-23.99 25 -24.98 25 -26 25 C-26 22.69 -26 20.38 -26 18 C-26.66 18 -27.32 18 -28 18 C-28.99 20.475 -28.99 20.475 -30 23 C-33.3125 23.3125 -33.3125 23.3125 -37 23 C-38.9375 20.5 -38.9375 20.5 -40 18 C-37.69 18.33 -35.38 18.66 -33 19 C-33 18.34 -33 17.68 -33 17 C-33.99 16.67 -34.98 16.34 -36 16 C-36 15.01 -36 14.02 -36 13 C-35.01 12.67 -34.02 12.34 -33 12 C-33 11.34 -33 10.68 -33 10 C-34.98 10.33 -36.96 10.66 -39 11 C-38.125 7.125 -38.125 7.125 -37 6 C-34.0625 5.8125 -34.0625 5.8125 -31 6 C-29 8 -29 8 -28.875 11.125 C-28.91625 12.07375 -28.9575 13.0225 -29 14 C-28.01 14 -27.02 14 -26 14 C-26 11.36 -26 8.72 -26 6 C-15.77 6 -5.54 6 5 6 C5 5.34 5 4.68 5 4 C2.525 3.505 2.525 3.505 0 3 C0 2.01 0 1.02 0 0 Z M-4 9 C-4.33 10.98 -4.66 12.96 -5 15 C-5.99 15.33 -6.98 15.66 -8 16 C-7.67 16.99 -7.34 17.98 -7 19 C-3.70924004 18.62095792 -3.70924004 18.62095792 -1 17 C-0.92851801 15.64756083 -0.91600546 14.29165633 -0.9375 12.9375 C-0.958125 11.638125 -0.97875 10.33875 -1 9 C-1.99 9 -2.98 9 -4 9 Z " fill="#FFFFFF" transform="translate(290,9)"/>
<path d="M0 0 C1.010625 0.0825 2.02125 0.165 3.0625 0.25 C5.0625 3.25 5.0625 3.25 5.0625 7.25 C5.7225 7.25 6.3825 7.25 7.0625 7.25 C7.0625 4.94 7.0625 2.63 7.0625 0.25 C21.5825 0.25 36.1025 0.25 51.0625 0.25 C51.0625 1.24 51.0625 2.23 51.0625 3.25 C50.0725 3.25 49.0825 3.25 48.0625 3.25 C48.0625 8.53 48.0625 13.81 48.0625 19.25 C46.7425 19.25 45.4225 19.25 44.0625 19.25 C44.0625 15.95 44.0625 12.65 44.0625 9.25 C42.4125 9.91 40.7625 10.57 39.0625 11.25 C39.0625 12.24 39.0625 13.23 39.0625 14.25 C40.0525 14.58 41.0425 14.91 42.0625 15.25 C42.0625 16.57 42.0625 17.89 42.0625 19.25 C39.45626858 18.89780657 37.45460885 18.48526531 35.1875 17.125 C34.0625 15.25 34.0625 15.25 34.1875 11.6875 C35.0625 8.25 35.0625 8.25 38.0625 6.25 C41.25 6.125 41.25 6.125 44.0625 6.25 C44.0625 5.26 44.0625 4.27 44.0625 3.25 C40.1025 3.25 36.1425 3.25 32.0625 3.25 C31.876875 4.673125 31.876875 4.673125 31.6875 6.125 C31.0625 9.25 31.0625 9.25 29.0625 11.25 C27.7425 11.25 26.4225 11.25 25.0625 11.25 C25.3925 12.24 25.7225 13.23 26.0625 14.25 C26.7225 14.58 27.3825 14.91 28.0625 15.25 C28.0625 14.59 28.0625 13.93 28.0625 13.25 C29.3825 13.25 30.7025 13.25 32.0625 13.25 C31.7325 14.9 31.4025 16.55 31.0625 18.25 C28.25 18.875 28.25 18.875 25.0625 19.25 C24.0725 18.59 23.0825 17.93 22.0625 17.25 C21.76953125 15.0859375 21.76953125 15.0859375 21.875 12.625 C21.90207031 11.80773438 21.92914063 10.99046875 21.95703125 10.1484375 C21.99183594 9.52195312 22.02664062 8.89546875 22.0625 8.25 C22.866875 7.981875 23.67125 7.71375 24.5 7.4375 C25.7684375 6.8496875 25.7684375 6.8496875 27.0625 6.25 C27.3925 5.26 27.7225 4.27 28.0625 3.25 C25.0925 3.25 22.1225 3.25 19.0625 3.25 C19.0625 8.53 19.0625 13.81 19.0625 19.25 C17.7425 19.25 16.4225 19.25 15.0625 19.25 C15.0625 13.97 15.0625 8.69 15.0625 3.25 C13.7425 3.25 12.4225 3.25 11.0625 3.25 C11.0625 8.53 11.0625 13.81 11.0625 19.25 C9.7425 19.25 8.4225 19.25 7.0625 19.25 C7.0625 16.28 7.0625 13.31 7.0625 10.25 C6.4025 10.25 5.7425 10.25 5.0625 10.25 C4.93875 11.03375 4.815 11.8175 4.6875 12.625 C4.0625 15.25 4.0625 15.25 2.0625 17.25 C-1.5625 16.875 -1.5625 16.875 -4.9375 16.25 C-5.5625 12.875 -5.5625 12.875 -5.9375 9.25 C-3.9375 7.25 -3.9375 7.25 -1.3125 7.125 C-0.52875 7.16625 0.255 7.2075 1.0625 7.25 C0.7325 6.26 0.4025 5.27 0.0625 4.25 C-0.2675 4.91 -0.5975 5.57 -0.9375 6.25 C-2.2575 6.25 -3.5775 6.25 -4.9375 6.25 C-3.87489612 0.32977839 -3.87489612 0.32977839 0 0 Z M-0.9375 10.25 C-1.2675 11.24 -1.5975 12.23 -1.9375 13.25 C-0.9475 13.25 0.0425 13.25 1.0625 13.25 C1.0625 12.26 1.0625 11.27 1.0625 10.25 C0.4025 10.25 -0.2575 10.25 -0.9375 10.25 Z " fill="#FFFFFF" transform="translate(99.9375,14.75)"/>
<path d="M0 0 C3.625 0.1875 3.625 0.1875 6.625 2.1875 C7.54556416 4.87837985 7.79263416 6.55421541 7.0625 9.3125 C5.04270134 11.94702 2.62719582 12.88219747 -0.375 14.1875 C0.12 15.6725 0.12 15.6725 0.625 17.1875 C-0.035 17.1875 -0.695 17.1875 -1.375 17.1875 C-1.64143311 17.77772949 -1.90786621 18.36795898 -2.18237305 18.97607422 C-4.18065388 22.68138186 -7.22312335 25.36332528 -10.1875 28.3125 C-10.80431641 28.94542969 -11.42113281 29.57835938 -12.05664062 30.23046875 C-15.27488557 33.45213373 -17.86798623 35.93412093 -22.375 37.1875 C-22.375 34.1875 -22.375 34.1875 -20.81445312 32.28637695 C-20.10224609 31.58988037 -19.39003906 30.89338379 -18.65625 30.17578125 C-17.88925781 29.41845703 -17.12226562 28.66113281 -16.33203125 27.88085938 C-15.52121094 27.09517578 -14.71039063 26.30949219 -13.875 25.5 C-12.65876953 24.30407227 -12.65876953 24.30407227 -11.41796875 23.08398438 C-9.41017797 21.1116252 -7.3957313 19.14658508 -5.375 17.1875 C-6.035 15.8675 -6.695 14.5475 -7.375 13.1875 C-10.54978244 14.59007604 -12.68473272 16.25069299 -15.125 18.70703125 C-15.8159375 19.39990234 -16.506875 20.09277344 -17.21875 20.80664062 C-17.9303125 21.53044922 -18.641875 22.25425781 -19.375 23 C-20.0865625 23.71220703 -20.798125 24.42441406 -21.53125 25.15820312 C-26.76535416 30.40242462 -26.76535416 30.40242462 -31.375 36.1875 C-31.29411632 38.93754514 -30.63762441 39.89336067 -28.8125 41.9375 C-28.1009375 42.55625 -28.1009375 42.55625 -27.375 43.1875 C-30.375 43.1875 -30.375 43.1875 -31.8125 41.8125 C-32.328125 41.27625 -32.84375 40.74 -33.375 40.1875 C-35.47489652 39.01175289 -35.47489652 39.01175289 -37.375 38.1875 C-35.8695581 34.61814582 -33.78212438 32.41658765 -31 29.75 C-27.87408077 26.69898299 -25.05876459 23.63805447 -22.375 20.1875 C-20.7313186 18.49816078 -19.0607124 16.83490076 -17.375 15.1875 C-16.70597656 14.4965625 -16.03695312 13.805625 -15.34765625 13.09375 C-14.63480469 12.3615625 -13.92195313 11.629375 -13.1875 10.875 C-12.17623047 9.82892578 -12.17623047 9.82892578 -11.14453125 8.76171875 C-9.375 7.1875 -9.375 7.1875 -7.375 7.1875 C-6.900625 6.218125 -6.42625 5.24875 -5.9375 4.25 C-3.87908401 0.21550467 -3.87908401 0.21550467 0 0 Z " fill="#36292C" transform="translate(55.375,7.8125)"/>
<path d="M0 0 C2.33043558 3.49565336 2.58763244 4.8865729 2 9 C-0.22461782 11.16607525 -2.23377522 12.61688761 -5 14 C-5.33 14.99 -5.66 15.98 -6 17 C-7.6436814 18.68933922 -9.3142876 20.35259924 -11 22 C-11.763125 22.94875 -12.52625 23.8975 -13.3125 24.875 C-15.94534301 28.11993708 -19.02509677 30.72068279 -22.23046875 33.38671875 C-24.22269441 35.07279422 -24.22269441 35.07279422 -26 38 C-28.625 39.1875 -28.625 39.1875 -31 40 C-30.42306248 36.8061772 -29.57123141 35.2117842 -27.234375 32.9765625 C-26.67363281 32.43 -26.11289062 31.8834375 -25.53515625 31.3203125 C-24.94605469 30.76085937 -24.35695313 30.20140625 -23.75 29.625 C-20.39271574 26.39597155 -17.11624528 23.22840728 -14.203125 19.5859375 C-13.47609375 18.73257813 -12.7490625 17.87921875 -12 17 C-11.34 17 -10.68 17 -10 17 C-11.86566488 13.37206002 -11.86566488 13.37206002 -15 11 C-15.35360596 11.84256348 -15.35360596 11.84256348 -15.71435547 12.70214844 C-17.30400372 15.54335036 -19.25343276 17.47807285 -21.5703125 19.765625 C-22.46621094 20.65507813 -23.36210938 21.54453125 -24.28515625 22.4609375 C-25.22230469 23.38132812 -26.15945312 24.30171875 -27.125 25.25 C-28.07988637 26.19484856 -29.03431859 27.14015633 -29.98828125 28.0859375 C-32.32109087 30.39518338 -34.65844086 32.69963203 -37 35 C-37.99 34.67 -38.98 34.34 -40 34 C-37.75444775 30.42375012 -35.57506811 27.48699853 -32.54077148 24.51879883 C-30.7051581 22.70936278 -28.91253151 20.86110683 -27.1171875 19.01171875 C-25.70327772 17.57016269 -24.2892119 16.12875967 -22.875 14.6875 C-22.15957031 13.94693359 -21.44414063 13.20636719 -20.70703125 12.44335938 C-19.67255859 11.39438477 -19.67255859 11.39438477 -18.6171875 10.32421875 C-17.99440918 9.68572998 -17.37163086 9.04724121 -16.72998047 8.3894043 C-15 7 -15 7 -12 7 C-11.9175 6.236875 -11.835 5.47375 -11.75 4.6875 C-11 2 -11 2 -9.375 0.125 C-5.92705069 -1.50823915 -3.62897301 -0.94084486 0 0 Z " fill="#262222" transform="translate(81,28)"/>
<path d="M0 0 C3.125 0.4375 3.125 0.4375 5.5625 2.5625 C7.125 5.4375 7.125 5.4375 7 8.625 C6.125 11.4375 6.125 11.4375 4.125 13.4375 C1.5 14.0625 1.5 14.0625 -0.875 14.4375 C-0.38 16.4175 -0.38 16.4175 0.125 18.4375 C-1.16216647 19.44328589 -2.45488658 20.44196798 -3.75 21.4375 C-4.46929687 21.994375 -5.18859375 22.55125 -5.9296875 23.125 C-7.875 24.4375 -7.875 24.4375 -9.875 24.4375 C-9.58625 23.880625 -9.2975 23.32375 -9 22.75 C-7.8336747 20.35255355 -6.8410119 17.92153061 -5.875 15.4375 C-7.58421582 14.48394047 -7.58421582 14.48394047 -9.875 14.4375 C-11.88321156 16.02096456 -13.49347605 17.52124765 -15.2265625 19.37109375 C-15.7266684 19.88301773 -16.22677429 20.39494171 -16.74203491 20.92237854 C-18.34026364 22.56188561 -19.92072658 24.21724294 -21.5 25.875 C-23.08889064 27.52649639 -24.68125602 29.17435443 -26.27938843 30.81690979 C-27.27368896 31.8405254 -28.26217376 32.86982753 -29.24429321 33.90513611 C-30.41671723 35.12024579 -31.64167519 36.28425262 -32.875 37.4375 C-33.535 37.4375 -34.195 37.4375 -34.875 37.4375 C-34.28800864 34.19469297 -33.32849108 32.49369686 -31.06640625 30.1171875 C-30.48858398 29.50367432 -29.91076172 28.89016113 -29.31542969 28.25805664 C-28.69571289 27.61602295 -28.07599609 26.97398926 -27.4375 26.3125 C-26.80875977 25.6517749 -26.18001953 24.9910498 -25.53222656 24.31030273 C-23.65491809 22.3443834 -21.76647694 20.38977984 -19.875 18.4375 C-19.34438965 17.88497559 -18.8137793 17.33245117 -18.26708984 16.76318359 C-12.349355 10.61022908 -12.349355 10.61022908 -9.875 8.4375 C-9.215 8.4375 -8.555 8.4375 -7.875 8.4375 C-7.42125 7.48875 -6.9675 6.54 -6.5 5.5625 C-3.91749292 0.59614023 -3.91749292 0.59614023 0 0 Z " fill="#2B2326" transform="translate(65.875,16.5625)"/>
<path d="M0 0 C1.73950195 0.97338867 1.73950195 0.97338867 2.73950195 3.97338867 C1.62011719 5.69995117 1.62011719 5.69995117 -0.1394043 7.59838867 C-0.78796387 8.3022168 -1.43652344 9.00604492 -2.10473633 9.73120117 C-5.7550556 13.52786393 -9.45300787 17.27011647 -13.19799805 20.97338867 C-14.36685547 22.13547852 -14.36685547 22.13547852 -15.55932617 23.32104492 C-17.45742225 25.20749624 -19.35782953 27.09155113 -21.26049805 28.97338867 C-22.58049805 27.98338867 -23.90049805 26.99338867 -25.26049805 25.97338867 C-24.54666812 20.05990761 -19.02220714 16.21631664 -15.00537109 12.21728516 C-13.44964857 10.66253816 -11.91648938 9.08766914 -10.38354492 7.51049805 C-9.39982173 6.52157013 -8.41483715 5.53389504 -7.4284668 4.54760742 C-6.53409912 3.6461499 -5.63973145 2.74469238 -4.71826172 1.81591797 C-2.26049805 -0.02661133 -2.26049805 -0.02661133 0 0 Z " fill="#F1F0F0" transform="translate(58.260498046875,30.026611328125)"/>
<path d="M0 0 C1.32 0.66 2.64 1.32 4 2 C4 6 4 6 1.88867188 8.56542969 C0.92556998 9.52789968 -0.04851129 10.47946407 -1.03125 11.421875 C-1.54175903 11.92672424 -2.05226807 12.43157349 -2.57824707 12.95172119 C-4.20968124 14.56077877 -5.85447267 16.15537022 -7.5 17.75 C-8.60898199 18.8389187 -9.71706654 19.92875219 -10.82421875 21.01953125 C-13.53918255 23.69041086 -16.266209 26.34839975 -19 29 C-20.32 28.34 -21.64 27.68 -23 27 C-22.50240246 22.79032481 -19.92752965 20.37325606 -17.125 17.4375 C-16.64119873 16.92026367 -16.15739746 16.40302734 -15.65893555 15.87011719 C-10.56318423 10.45808918 -5.30175131 5.20945777 0 0 Z " fill="#DE7525" transform="translate(46,20)"/>
<path d="M0 0 C0.886875 -0.185625 1.77375 -0.37125 2.6875 -0.5625 C5 -1 5 -1 9 1 C9 5.29 9 9.58 9 14 C7.68 14 6.36 14 5 14 C4.505 9.05 4.505 9.05 4 4 C3.01 3.67 2.02 3.34 1 3 C0.67 6.63 0.34 10.26 0 14 C-1.32 14 -2.64 14 -4 14 C-4.33 10.7 -4.66 7.4 -5 4 C-5.99 4 -6.98 4 -8 4 C-8.33 7.3 -8.66 10.6 -9 14 C-10.32 14 -11.64 14 -13 14 C-13 9.38 -13 4.76 -13 0 C-7.76409695 -0.87265051 -5.03777429 -0.73276717 0 0 Z " fill="#FFFFFF" transform="translate(268,50)"/>
<path d="M0 0 C0.886875 -0.20625 1.77375 -0.4125 2.6875 -0.625 C5 -1 5 -1 7.12890625 0.08984375 C9 2 9 2 9.390625 4.91796875 C9.32101563 6.53638672 9.32101563 6.53638672 9.25 8.1875 C9.21390625 9.27417969 9.1778125 10.36085938 9.140625 11.48046875 C9.07101563 12.72763672 9.07101563 12.72763672 9 14 C7.68 14 6.36 14 5 14 C4.505 9.05 4.505 9.05 4 4 C3.01 4 2.02 4 1 4 C0.67 7.3 0.34 10.6 0 14 C-1.32 14 -2.64 14 -4 14 C-4.33 10.37 -4.66 6.74 -5 3 C-5.99 3.33 -6.98 3.66 -8 4 C-8.33 7.3 -8.66 10.6 -9 14 C-10.32 14 -11.64 14 -13 14 C-13 9.38 -13 4.76 -13 0 C-7.76409695 -0.87265051 -5.03777429 -0.73276717 0 0 Z " fill="#FFFFFF" transform="translate(243,50)"/>
<path d="M0 0 C1.32 0 2.64 0 4 0 C4 6.27 4 12.54 4 19 C-6.19117647 19.60661765 -6.19117647 19.60661765 -9.75 16.9375 C-11.38491083 13.09545954 -11.17983946 10.98195819 -10 7 C-8.25 5 -8.25 5 -6 4 C-3.25 4.3125 -3.25 4.3125 -1 5 C-0.67 3.35 -0.34 1.7 0 0 Z M-5 8 C-5.66 9.32 -6.32 10.64 -7 12 C-6.01 13.485 -6.01 13.485 -5 15 C-3.01508358 14.73323796 -3.01508358 14.73323796 -1 14 C-0.67 13.01 -0.34 12.02 0 11 C-0.66 10.01 -1.32 9.02 -2 8 C-2.99 8 -3.98 8 -5 8 Z " fill="#FFFFFF" transform="translate(418,45)"/>
<path d="M0 0 C0 4.62 0 9.24 0 14 C-10.19117647 14.60661765 -10.19117647 14.60661765 -13.75 11.9375 C-15.38491083 8.09545954 -15.17983946 5.98195819 -14 2 C-9.63720278 -2.3529711 -5.70386248 -0.82555904 0 0 Z M-9 3 C-9.66 4.32 -10.32 5.64 -11 7 C-10.01 8.485 -10.01 8.485 -9 10 C-7.01508358 9.73323796 -7.01508358 9.73323796 -5 9 C-4.67 8.01 -4.34 7.02 -4 6 C-4.66 5.01 -5.32 4.02 -6 3 C-6.99 3 -7.98 3 -9 3 Z " fill="#FFFFFF" transform="translate(445,50)"/>
<path d="M0 0 C2.5 1.875 2.5 1.875 4 4 C4 4.66 4 5.32 4 6 C2.33388095 6.042721 0.66617115 6.04063832 -1 6 C-1.33 5.67 -1.66 5.34 -2 5 C-3.66617115 4.95936168 -5.33388095 4.957279 -7 5 C-7.67801034 7.90073181 -7.67801034 7.90073181 -8 11 C-7.34 11.66 -6.68 12.32 -6 13 C-3.55036823 13.02253443 -3.55036823 13.02253443 -0.875 12.625 C0.03507813 12.51414062 0.94515625 12.40328125 1.8828125 12.2890625 C2.58148438 12.19367187 3.28015625 12.09828125 4 12 C2.63016497 15.16115776 2.0109362 15.9927092 -1 18 C-4.8973724 18.50835292 -6.50556726 18.32962183 -9.8125 16.125 C-12.59649199 13.42055063 -12.93464155 12.57733296 -13.375 8.6875 C-13 5 -13 5 -11 2.0625 C-6.84919686 -0.79117716 -4.9698922 -0.7099846 0 0 Z " fill="#FFFFFF" transform="translate(208,46)"/>
<path d="M0 0 C4.23059921 1.37954322 4.23059921 1.37954322 5.875 3.9375 C6.0625 6.625 6.0625 6.625 5.875 8.9375 C4.225 9.2675 2.575 9.5975 0.875 9.9375 C2.525 9.9375 4.175 9.9375 5.875 9.9375 C4.25 12.4375 4.25 12.4375 1.875 14.9375 C-1.78105504 15.62301032 -3.3879338 15.42241197 -6.5 13.375 C-8.76413895 9.97879157 -8.76769755 7.93650698 -8.125 3.9375 C-5.45043116 0.79094842 -4.15592269 -0.08311845 0 0 Z M-3.125 3.9375 C-3.455 4.5975 -3.785 5.2575 -4.125 5.9375 C-2.475 5.9375 -0.825 5.9375 0.875 5.9375 C0.875 5.2775 0.875 4.6175 0.875 3.9375 C-0.445 3.9375 -1.765 3.9375 -3.125 3.9375 Z " fill="#FFFFFF" transform="translate(121.125,49.0625)"/>
<path d="M0 0 C3.3125 1 3.3125 1 5.3125 4 C5.75 6.9375 5.75 6.9375 5.3125 10 C3.0625 12.375 3.0625 12.375 0.3125 14 C-1.0075 14 -2.3275 14 -3.6875 14 C-3.6875 13.34 -3.6875 12.68 -3.6875 12 C-4.326875 11.773125 -4.96625 11.54625 -5.625 11.3125 C-7.6875 10 -7.6875 10 -8.75 7.6875 C-8.6875 5 -8.6875 5 -6.6875 2.125 C-3.6875 0 -3.6875 0 0 0 Z " fill="#6C6769" transform="translate(77.6875,27)"/>
<path d="M0 0 C3.63 0 7.26 0 11 0 C11 1.32 11 2.64 11 4 C8.69 4 6.38 4 4 4 C4 4.99 4 5.98 4 7 C5.98 7 7.96 7 10 7 C10 7.99 10 8.98 10 10 C8.02 10 6.04 10 4 10 C4 11.32 4 12.64 4 14 C6.31 14 8.62 14 11 14 C11 15.32 11 16.64 11 18 C7.37 18 3.74 18 0 18 C0 12.06 0 6.12 0 0 Z " fill="#FFFFFF" transform="translate(94,46)"/>
<path d="M0 0 C2.4375 2.125 2.4375 2.125 4 5 C3.85384044 8.72706873 3.65788293 10.34211707 1 13 C-2.9170163 13.43522403 -5.15241649 13.55092928 -8.5 11.375 C-10 9 -10 9 -9.9375 5.9375 C-8.17204179 0.40573093 -5.85076234 -0.9552265 0 0 Z " fill="#6D6669" transform="translate(69,17)"/>
<path d="M0 0 C0.99 0.33 1.98 0.66 3 1 C1.58226538 4.54433654 0.32387762 5.33806119 -3 7 C-3.2784375 7.58652344 -3.556875 8.17304687 -3.84375 8.77734375 C-5.30751163 11.59112877 -7.21526557 13.37049018 -9.5 15.5625 C-12.02809153 17.9961985 -14.04672934 20.07009401 -16 23 C-16.66 23 -17.32 23 -18 23 C-18.33 23.99 -18.66 24.98 -19 26 C-21.3125 28.6875 -21.3125 28.6875 -24 31 C-25.32 31 -26.64 31 -28 31 C-27.34 29.35 -26.68 27.7 -26 26 C-25.01 26 -24.02 26 -23 26 C-23 25.34 -23 24.68 -23 24 C-21.8125 22.6875 -21.8125 22.6875 -20 21 C-16.52549184 17.61939746 -13.37493174 14.12095775 -10.33203125 10.35546875 C-9.89246094 9.90816406 -9.45289062 9.46085937 -9 9 C-8.34 9 -7.68 9 -7 9 C-6.773125 8.2575 -6.54625 7.515 -6.3125 6.75 C-4.72960669 3.43346164 -3.08697652 1.95759487 0 0 Z " fill="#BABABA" transform="translate(75,44)"/>
<path d="M0 0 C1.9375 1.625 1.9375 1.625 3 4 C2.93439072 7.739729 2.76345433 10.0603639 0.375 13 C-3.14974145 14.48410166 -5.36810976 14.05654989 -9 13 C-11.56809203 10.19114934 -12 8.67384851 -12 4.875 C-11 2 -11 2 -8.8125 0.0625 C-5.32408458 -1.25534582 -3.53311738 -1.15210349 0 0 Z M-6 3 C-7.29633621 4.06645115 -7.29633621 4.06645115 -7.0625 6.5625 C-7.041875 7.366875 -7.02125 8.17125 -7 9 C-5.68 9.33 -4.36 9.66 -3 10 C-2.34 8.68 -1.68 7.36 -1 6 C-1.66 5.01 -2.32 4.02 -3 3 C-3.99 3 -4.98 3 -6 3 Z " fill="#FFFFFF" transform="translate(367,50)"/>
<path d="M0 0 C1.9375 1.625 1.9375 1.625 3 4 C2.93439072 7.739729 2.76345433 10.0603639 0.375 13 C-3.14974145 14.48410166 -5.36810976 14.05654989 -9 13 C-11.56809203 10.19114934 -12 8.67384851 -12 4.875 C-11 2 -11 2 -8.8125 0.0625 C-5.32408458 -1.25534582 -3.53311738 -1.15210349 0 0 Z M-6 3 C-7.29633621 4.06645115 -7.29633621 4.06645115 -7.0625 6.5625 C-7.041875 7.366875 -7.02125 8.17125 -7 9 C-5.68 9.33 -4.36 9.66 -3 10 C-2.34 8.68 -1.68 7.36 -1 6 C-1.66 5.01 -2.32 4.02 -3 3 C-3.99 3 -4.98 3 -6 3 Z " fill="#FFFFFF" transform="translate(330,50)"/>
<path d="M0 0 C1.9375 1.625 1.9375 1.625 3 4 C2.93439072 7.739729 2.76345433 10.0603639 0.375 13 C-3.14974145 14.48410166 -5.36810976 14.05654989 -9 13 C-11.56809203 10.19114934 -12 8.67384851 -12 4.875 C-11 2 -11 2 -8.8125 0.0625 C-5.32408458 -1.25534582 -3.53311738 -1.15210349 0 0 Z M-6 3 C-7.29633621 4.06645115 -7.29633621 4.06645115 -7.0625 6.5625 C-7.041875 7.366875 -7.02125 8.17125 -7 9 C-5.68 9.33 -4.36 9.66 -3 10 C-2.34 8.68 -1.68 7.36 -1 6 C-1.66 5.01 -2.32 4.02 -3 3 C-3.99 3 -4.98 3 -6 3 Z " fill="#FFFFFF" transform="translate(225,50)"/>
<path d="M0 0 C2.51029235 2.83420104 3.01329687 4.33515665 2.9375 8.125 C2 11 2 11 0.375 12.9375 C-3.11319754 14.49800943 -5.36432898 13.99154664 -9 13 C-11 11.375 -11 11.375 -12 9 C-12 5.4375 -12 5.4375 -11 2 C-7.39226569 -1.29849994 -4.57403022 -1.59096703 0 0 Z M-6 3 C-6.66 4.65 -7.32 6.3 -8 8 C-7.34 8.66 -6.68 9.32 -6 10 C-3.89179203 9.6814823 -3.89179203 9.6814823 -2 9 C-2 7.35 -2 5.7 -2 4 C-3.32 3.67 -4.64 3.34 -6 3 Z " fill="#FFFFFF" transform="translate(170,50)"/>
<path d="M0 0 C2.28062828 3.42094242 2.21925007 4.68187222 2.125 8.6875 C2.10695313 9.68136719 2.08890625 10.67523438 2.0703125 11.69921875 C2.03550781 12.83810547 2.03550781 12.83810547 2 14 C0.68 14 -0.64 14 -2 14 C-2.33 11.03 -2.66 8.06 -3 5 C-4.32 5 -5.64 5 -7 5 C-7.33 7.97 -7.66 10.94 -8 14 C-9.32 14 -10.64 14 -12 14 C-12 9.38 -12 4.76 -12 0 C-4.55172414 -1.24137931 -4.55172414 -1.24137931 0 0 Z " fill="#FFFFFF" transform="translate(404,50)"/>
<path d="M0 0 C2.28062828 3.42094242 2.21925007 4.68187222 2.125 8.6875 C2.10695312 9.68136719 2.08890625 10.67523438 2.0703125 11.69921875 C2.03550781 12.83810547 2.03550781 12.83810547 2 14 C0.68 14 -0.64 14 -2 14 C-2.33 11.03 -2.66 8.06 -3 5 C-4.32 5 -5.64 5 -7 5 C-7.33 7.97 -7.66 10.94 -8 14 C-9.32 14 -10.64 14 -12 14 C-12 9.38 -12 4.76 -12 0 C-4.55172414 -1.24137931 -4.55172414 -1.24137931 0 0 Z " fill="#FFFFFF" transform="translate(186,50)"/>
<path d="M0 0 C3.5625 0.25 3.5625 0.25 6.5625 2.25 C7.5115002 5.02400059 7.75843323 6.62657608 6.875 9.4375 C5.27861533 11.64203122 4.14871439 12.41328358 1.5625 13.25 C-1.23997516 13.0748453 -2.46676377 12.22864536 -4.75 10.5625 C-6.4375 8.25 -6.4375 8.25 -6.3125 5.125 C-5.04901248 0.97354099 -4.37875718 0.31845507 0 0 Z " fill="#6F686B" transform="translate(55.4375,7.75)"/>
<path d="M0 0 C2 2 2 2 2.1953125 4.8203125 C2.16050781 6.45613281 2.16050781 6.45613281 2.125 8.125 C2.10695313 9.22070312 2.08890625 10.31640625 2.0703125 11.4453125 C2.04710937 12.28835937 2.02390625 13.13140625 2 14 C0.68 14 -0.64 14 -2 14 C-2.33 10.7 -2.66 7.4 -3 4 C-3.99 4 -4.98 4 -6 4 C-6.33 7.3 -6.66 10.6 -7 14 C-8.32 14 -9.64 14 -11 14 C-11 9.38 -11 4.76 -11 0 C-3.88235294 -1.18627451 -3.88235294 -1.18627451 0 0 Z " fill="#FFFFFF" transform="translate(346,50)"/>
<path d="M0 0 C3 1 3 1 4.1875 3.0625 C4.455625 3.701875 4.72375 4.34125 5 5 C5.78375 4.835 6.5675 4.67 7.375 4.5 C10.6518327 3.87584139 11.77779 3.92593 15 5 C14.01 5.33 13.02 5.66 12 6 C12 6.66 12 7.32 12 8 C11.01 8 10.02 8 9 8 C8.67 8.99 8.34 9.98 8 11 C7.34 11 6.68 11 6 11 C6 11.66 6 12.32 6 13 C4.35 13.33 2.7 13.66 1 14 C0.7525 13.38125 0.505 12.7625 0.25 12.125 C-1.20628639 9.64931313 -2.37812506 9.04874998 -5 8 C-5 6.68 -5 5.36 -5 4 C-4.01 4 -3.02 4 -2 4 C-1.34 2.68 -0.68 1.36 0 0 Z " fill="#393236" transform="translate(40,62)"/>
<path d="M0 0 C0.928125 0.20625 1.85625 0.4125 2.8125 0.625 C3.8125 5.375 3.8125 5.375 3.8125 7.625 C4.039375 8.264375 4.26625 8.90375 4.5 9.5625 C4.8125 11.625 4.8125 11.625 3.75 13.375 C0.96843839 15.16955588 -0.94499038 15.0303137 -4.1875 14.625 C-6.0625 13.25 -6.0625 13.25 -7.1875 11.625 C-7.1875 10.965 -7.1875 10.305 -7.1875 9.625 C-5.2075 9.625 -3.2275 9.625 -1.1875 9.625 C-3.1675 8.635 -5.1475 7.645 -7.1875 6.625 C-6.875 4.25 -6.875 4.25 -6.1875 1.625 C-3.1875 -0.375 -3.1875 -0.375 0 0 Z M-3.1875 3.625 C-2.8575 4.285 -2.5275 4.945 -2.1875 5.625 C-1.1975 5.295 -0.2075 4.965 0.8125 4.625 C-0.5075 4.295 -1.8275 3.965 -3.1875 3.625 Z " fill="#FFFFFF" transform="translate(306.1875,49.375)"/>
<path d="M0 0 C0.928125 0.20625 1.85625 0.4125 2.8125 0.625 C3.8125 5.375 3.8125 5.375 3.8125 7.625 C4.039375 8.264375 4.26625 8.90375 4.5 9.5625 C4.8125 11.625 4.8125 11.625 3.75 13.375 C0.96843839 15.16955588 -0.94499038 15.0303137 -4.1875 14.625 C-6.0625 13.25 -6.0625 13.25 -7.1875 11.625 C-7.1875 10.965 -7.1875 10.305 -7.1875 9.625 C-5.2075 9.625 -3.2275 9.625 -1.1875 9.625 C-3.1675 8.635 -5.1475 7.645 -7.1875 6.625 C-6.875 4.25 -6.875 4.25 -6.1875 1.625 C-3.1875 -0.375 -3.1875 -0.375 0 0 Z M-3.1875 3.625 C-2.8575 4.285 -2.5275 4.945 -2.1875 5.625 C-1.1975 5.295 -0.2075 4.965 0.8125 4.625 C-0.5075 4.295 -1.8275 3.965 -3.1875 3.625 Z " fill="#FFFFFF" transform="translate(293.1875,49.375)"/>
<path d="M0 0 C2 2 2 2 2 5 C-0.64 4.67 -3.28 4.34 -6 4 C-6 5.65 -6 7.3 -6 9 C-3.36 8.67 -0.72 8.34 2 8 C1.6875 9.875 1.6875 9.875 1 12 C-2 14 -2 14 -5.5625 13.75 C-9 13 -9 13 -11 11 C-11.46376812 3.69565217 -11.46376812 3.69565217 -9 0 C-5.47955362 -1.17348213 -3.57539179 -0.83679382 0 0 Z " fill="#FFFFFF" transform="translate(139,50)"/>
<path d="M0 0 C1.32 0 2.64 0 4 0 C4 1.32 4 2.64 4 4 C4.99 4 5.98 4 7 4 C7 4.99 7 5.98 7 7 C6.01 7 5.02 7 4 7 C4 9.31 4 11.62 4 14 C4.99 14 5.98 14 7 14 C7 15.32 7 16.64 7 18 C4.625 18.125 4.625 18.125 2 18 C0 16 0 16 -0.1953125 13.8359375 C-0.17210937 13.02382813 -0.14890625 12.21171875 -0.125 11.375 C-0.10695312 10.55773438 -0.08890625 9.74046875 -0.0703125 8.8984375 C-0.04710937 8.27195312 -0.02390625 7.64546875 0 7 C-0.66 7 -1.32 7 -2 7 C-2 6.01 -2 5.02 -2 4 C-1.34 4 -0.68 4 0 4 C0 2.68 0 1.36 0 0 Z " fill="#FFFFFF" transform="translate(144,46)"/>
<path d="M0 0 C0 1.32 0 2.64 0 4 C-0.66 4 -1.32 4 -2 4 C-2 4.66 -2 5.32 -2 6 C-1.34 6 -0.68 6 0 6 C0 6.99 0 7.98 0 9 C-0.66 9 -1.32 9 -2 9 C-2 12.63 -2 16.26 -2 20 C-3.32 20 -4.64 20 -6 20 C-6 16.37 -6 12.74 -6 9 C-6.66 9 -7.32 9 -8 9 C-8 8.01 -8 7.02 -8 6 C-7.34 6 -6.68 6 -6 6 C-5.87625 5.195625 -5.7525 4.39125 -5.625 3.5625 C-5.41875 2.716875 -5.2125 1.87125 -5 1 C-3 0 -3 0 0 0 Z " fill="#FFFFFF" transform="translate(378,44)"/>
<path d="M0 0 C0.66 0 1.32 0 2 0 C0.54254576 3.36335594 -1.31117854 5.54534005 -3.9140625 8.109375 C-4.67460938 8.86347656 -5.43515625 9.61757813 -6.21875 10.39453125 C-7.0128125 11.17183594 -7.806875 11.94914062 -8.625 12.75 C-9.42679688 13.54277344 -10.22859375 14.33554687 -11.0546875 15.15234375 C-13.03202846 17.10614493 -15.01388909 19.05512103 -17 21 C-17.99 20.67 -18.98 20.34 -20 20 C-15.91527547 13.49469797 -11.4153091 9.27687273 -5 5 C-4.0925 4.0925 -3.185 3.185 -2.25 2.25 C-1.5075 1.5075 -0.765 0.765 0 0 Z " fill="#2B2126" transform="translate(61,42)"/>
<path d="M0 0 C1.32 0.66 2.64 1.32 4 2 C4 2.66 4 3.32 4 4 C4.99 4 5.98 4 7 4 C7 4.99 7 5.98 7 7 C7.66 7 8.32 7 9 7 C9.33 8.65 9.66 10.3 10 12 C8.02 12.99 8.02 12.99 6 14 C5.34 13.34 4.68 12.68 4 12 C4 11.01 4 10.02 4 9 C1.525 8.01 1.525 8.01 -1 7 C-1 6.34 -1 5.68 -1 5 C-1.66 4.67 -2.32 4.34 -3 4 C-2.01 2.68 -1.02 1.36 0 0 Z " fill="#9E9C9E" transform="translate(25,54)"/>
<path d="M0 0 C1.32 0 2.64 0 4 0 C4 6.27 4 12.54 4 19 C2.68 19 1.36 19 0 19 C0 12.73 0 6.46 0 0 Z " fill="#FFFFFF" transform="translate(107,45)"/>
<path d="M0 0 C1.32 0 2.64 0 4 0 C4 5.94 4 11.88 4 18 C2.68 18 1.36 18 0 18 C0 12.06 0 6.12 0 0 Z " fill="#FFFFFF" transform="translate(386,46)"/>
<path d="M0 0 C1.67542976 0.28604898 3.34385343 0.61781233 5 1 C5.33 1.99 5.66 2.98 6 4 C6.99 4.33 7.98 4.66 9 5 C9 5.99 9 6.98 9 8 C7.3203125 9.60546875 7.3203125 9.60546875 5.125 11.1875 C4.04605469 11.98220703 4.04605469 11.98220703 2.9453125 12.79296875 C1 14 1 14 -1 14 C-0.71125 13.443125 -0.4225 12.88625 -0.125 12.3125 C1.0413253 9.91505355 2.0339881 7.48403061 3 5 C1.68 3.68 0.36 2.36 -1 1 C-0.67 0.67 -0.34 0.34 0 0 Z " fill="#292124" transform="translate(57,27)"/>
<path d="M0 0 C1.32 0 2.64 0 4 0 C4 4.62 4 9.24 4 14 C2.68 14 1.36 14 0 14 C0 9.38 0 4.76 0 0 Z " fill="#FFFFFF" transform="translate(424,50)"/>
<path d="M0 0 C1.32 0 2.64 0 4 0 C4 4.62 4 9.24 4 14 C2.68 14 1.36 14 0 14 C0 9.38 0 4.76 0 0 Z " fill="#FFFFFF" transform="translate(313,50)"/>
<path d="M0 0 C1.32 0 2.64 0 4 0 C4 4.62 4 9.24 4 14 C2.68 14 1.36 14 0 14 C0 9.38 0 4.76 0 0 Z " fill="#FFFFFF" transform="translate(280,50)"/>
<path d="M0 0 C1.32 0 2.64 0 4 0 C4 4.62 4 9.24 4 14 C2.68 14 1.36 14 0 14 C0 9.38 0 4.76 0 0 Z " fill="#FFFFFF" transform="translate(152,50)"/>
<path d="M0 0 C2.96175123 0.61277612 4.38058783 1.25372522 7 3 C7.66 3 8.32 3 9 3 C10.125 7.75 10.125 7.75 9 10 C7.0625 9.6875 7.0625 9.6875 5 9 C4.67 8.01 4.34 7.02 4 6 C1.99983534 4.79117904 1.99983534 4.79117904 0 4 C0 2.68 0 1.36 0 0 Z " fill="#C4C2C3" transform="translate(35,66)"/>
<path d="M0 0 C4.2742558 1.5830577 6.26531794 4.50568404 9 8 C8.34 8.66 7.68 9.32 7 10 C4.375 9.625 4.375 9.625 2 9 C2 8.34 2 7.68 2 7 C1.34 7 0.68 7 0 7 C0 4.69 0 2.38 0 0 Z " fill="#A8A7A8" transform="translate(16,46)"/>
<path d="M0 0 C0.99 0.33 1.98 0.66 3 1 C1.58226538 4.54433654 0.32387762 5.33806119 -3 7 C-4.26804566 9.0335948 -4.26804566 9.0335948 -5 11 C-5.66 9.68 -6.32 8.36 -7 7 C-2.25 1.125 -2.25 1.125 0 0 Z " fill="#B8AAB7" transform="translate(75,44)"/>
<path d="M0 0 C-1.61010527 4.07376031 -4.53822271 6.76507069 -7.625 9.75 C-8.140625 10.25660156 -8.65625 10.76320313 -9.1875 11.28515625 C-10.45383339 12.52803902 -11.7263144 13.76465276 -13 15 C-13.33 14.01 -13.66 13.02 -14 12 C-12.04761147 9.99387601 -10.08862178 7.99507567 -8.125 6 C-7.29162109 5.14148438 -7.29162109 5.14148438 -6.44140625 4.265625 C-2.2265625 0 -2.2265625 0 0 0 Z " fill="#1F1B19" transform="translate(52,25)"/>
<path d="M0 0 C0.99 0.33 1.98 0.66 3 1 C2.01 1.66 1.02 2.32 0 3 C-0.12375 3.66 -0.2475 4.32 -0.375 5 C-0.58125 5.66 -0.7875 6.32 -1 7 C-2.66666667 7.66666667 -4.33333333 8.33333333 -6 9 C-8.15609766 10.8827895 -10.04074475 12.90405252 -12 15 C-12.66 14.67 -13.32 14.34 -14 14 C-9.38 9.38 -4.76 4.76 0 0 Z " fill="#3D383A" transform="translate(66,35)"/>
<path d="M0 0 C3.75376152 1.25125384 4.24073289 2.5652404 6 6 C6 6.66 6 7.32 6 8 C3.15673536 8.23053497 1.53854651 8.35903101 -0.875 6.75 C-2 5 -2 5 -1.75 2.875 C-1 1 -1 1 0 0 Z " fill="#343131" transform="translate(40,62)"/>
<path d="M0 0 C0.99 0 1.98 0 3 0 C3 0.99 3 1.98 3 3 C3.66 3 4.32 3 5 3 C5.33 4.65 5.66 6.3 6 8 C4.02 8.99 4.02 8.99 2 10 C1.34 9.34 0.68 8.68 0 8 C0 7.01 0 6.02 0 5 C-0.66 4.67 -1.32 4.34 -2 4 C-1.01 4 -0.02 4 1 4 C1.33 3.01 1.66 2.02 2 1 C1.34 0.67 0.68 0.34 0 0 Z " fill="#9D9A9C" transform="translate(29,58)"/>
<path d="M0 0 C0 0.99 0 1.98 0 3 C-1.41654776 4.2518329 -2.84249402 5.4961236 -4.33203125 6.66015625 C-6.74671614 8.59982116 -8.84330201 10.77986971 -11 13 C-9.72047274 7.99821161 -7.91534677 5.35601152 -4 2 C-1.6875 0.6875 -1.6875 0.6875 0 0 Z " fill="#45313D" transform="translate(60,38)"/>
<path d="M0 0 C0.66 0 1.32 0 2 0 C0.34136495 4.32504836 -2.871041 7.09418825 -6.125 10.25 C-6.68832031 10.80429687 -7.25164063 11.35859375 -7.83203125 11.9296875 C-9.21686028 13.29104485 -10.60783204 14.64614859 -12 16 C-12 13 -12 13 -9.8828125 10.625 C-8.97273438 9.75875 -8.06265625 8.8925 -7.125 8 C-4.39565456 5.38729326 -2.09873823 3.14810735 0 0 Z " fill="#181717" transform="translate(39,24)"/>
<path d="M0 0 C0 3 0 3 -1.6875 5.0625 C-4.06073778 7.05088841 -6.08060173 8.02686724 -9 9 C-9 8.01 -9 7.02 -9 6 C-4.65714286 2 -4.65714286 2 -2 2 C-1.34 1.34 -0.68 0.68 0 0 Z " fill="#2F2321" transform="translate(42,36)"/>
<path d="M0 0 C0.33 0.66 0.66 1.32 1 2 C1.66 2 2.32 2 3 2 C3.66 3.32 4.32 4.64 5 6 C4.01 6.66 3.02 7.32 2 8 C2 7.34 2 6.68 2 6 C1.38125 5.731875 0.7625 5.46375 0.125 5.1875 C-2 4 -2 4 -4 1 C-2.68 0.67 -1.36 0.34 0 0 Z " fill="#3F3A3B" transform="translate(30,52)"/>
<path d="M0 0 C0.99 0.33 1.98 0.66 3 1 C2.67 1.66 2.34 2.32 2 3 C2 3.66 2 4.32 2 5 C-0.63904371 6.41377341 -3.07120629 7.37240135 -6 8 C-4.55746343 4.63408134 -2.66735273 2.48952921 0 0 Z " fill="#3D3237" transform="translate(56,25)"/>
<path d="M0 0 C1.65 0 3.3 0 5 0 C3.75 2.5 3.75 2.5 2 5 C0.68 5 -0.64 5 -2 5 C-1.34 3.35 -0.68 1.7 0 0 Z " fill="#B3B2B2" transform="translate(49,70)"/>
<path d="M0 0 C-1.55603771 3.81936528 -3.95604931 6.26044438 -7 9 C-7.66 9 -8.32 9 -9 9 C-7.45665977 5.21180126 -4.44676575 0 0 0 Z " fill="#1B1D18" transform="translate(63,42)"/>
<path d="M0 0 C-1.55500981 3.81684226 -4.03595495 6.19195732 -7 9 C-7.33 8.01 -7.66 7.02 -8 6 C-7.0479279 4.99403703 -6.08812654 3.99538437 -5.125 3 C-4.59132812 2.443125 -4.05765625 1.88625 -3.5078125 1.3125 C-2 0 -2 0 0 0 Z " fill="#221F1E" transform="translate(52,45)"/>
<path d="M0 0 C0.66 0 1.32 0 2 0 C2 0.99 2 1.98 2 3 C2.66 3 3.32 3 4 3 C4 4.65 4 6.3 4 8 C3.67 7.34 3.34 6.68 3 6 C2.01 6 1.02 6 0 6 C-1.125 2.25 -1.125 2.25 0 0 Z " fill="#DBDBDB" transform="translate(27,56)"/>
<path d="M0 0 C0.99 0 1.98 0 3 0 C2.42655063 2.86724686 2.1385485 3.8614515 0 6 C-0.99 5.67 -1.98 5.34 -3 5 C-1.6875 2.5 -1.6875 2.5 0 0 Z " fill="#D6D6D6" transform="translate(66,53)"/>
<path d="M0 0 C0.33 0.99 0.66 1.98 1 3 C1.66 3.33 2.32 3.66 3 4 C2.34 4 1.68 4 1 4 C0.34 5.32 -0.32 6.64 -1 8 C-1.66 6.68 -2.32 5.36 -3 4 C-2.01 2.68 -1.02 1.36 0 0 Z " fill="#9F9F9F" transform="translate(71,47)"/>
<path d="M0 0 C1.98 0.495 1.98 0.495 4 1 C3.67 2.32 3.34 3.64 3 5 C1.68 4.67 0.36 4.34 -1 4 C-0.67 2.68 -0.34 1.36 0 0 Z " fill="#FFFFFF" transform="translate(425,44)"/>
<path d="M0 0 C1.32 0 2.64 0 4 0 C3.67 1.65 3.34 3.3 3 5 C2.01 5 1.02 5 0 5 C-0.5625 3.0625 -0.5625 3.0625 -1 1 C-0.67 0.67 -0.34 0.34 0 0 Z " fill="#FFFFFF" transform="translate(313,44)"/>
<path d="M0 0 C1.32 0 2.64 0 4 0 C3.67 1.65 3.34 3.3 3 5 C2.01 5 1.02 5 0 5 C-0.5625 3.0625 -0.5625 3.0625 -1 1 C-0.67 0.67 -0.34 0.34 0 0 Z " fill="#FFFFFF" transform="translate(280,44)"/>
<path d="M0 0 C1.98 0.495 1.98 0.495 4 1 C3.67 2.32 3.34 3.64 3 5 C1.68 4.67 0.36 4.34 -1 4 C-0.67 2.68 -0.34 1.36 0 0 Z " fill="#FFFFFF" transform="translate(153,44)"/>
<path d="M0 0 C0.598125 0.763125 1.19625 1.52625 1.8125 2.3125 C3.46959332 4.3483575 5.10297674 6.1978279 7 8 C4 8 4 8 2.5 6.5625 C2.005 6.046875 1.51 5.53125 1 5 C0.01 4.67 -0.98 4.34 -2 4 C-1.34 2.68 -0.68 1.36 0 0 Z " fill="#181717" transform="translate(21,43)"/>
<path d="M0 0 C0.99 0.33 1.98 0.66 3 1 C1.515 3.475 1.515 3.475 0 6 C-1.32 5.34 -2.64 4.68 -4 4 C-2.68 2.68 -1.36 1.36 0 0 Z " fill="#232F25" transform="translate(69,45)"/>
<path d="M0 0 C1.0625 1.8125 1.0625 1.8125 2 4 C1.67 4.99 1.34 5.98 1 7 C-0.32 6.67 -1.64 6.34 -3 6 C-3 5.01 -3 4.02 -3 3 C-2.34 3 -1.68 3 -1 3 C-0.67 2.01 -0.34 1.02 0 0 Z " fill="#ACACAC" transform="translate(43,69)"/>
<path d="M0 0 C0.99 0.33 1.98 0.66 3 1 C2.01 1.33 1.02 1.66 0 2 C0 2.66 0 3.32 0 4 C-2.97 3.505 -2.97 3.505 -6 3 C-3.375 0 -3.375 0 0 0 Z " fill="#404A43" transform="translate(52,66)"/>
<path d="M0 0 C2.0625 0.4375 2.0625 0.4375 4 1 C2.35 2.65 0.7 4.3 -1 6 C-1.042721 4.33388095 -1.04063832 2.66617115 -1 1 C-0.67 0.67 -0.34 0.34 0 0 Z " fill="#22221F" transform="translate(51,50)"/>
<path d="M0 0 C-3.465 2.97 -3.465 2.97 -7 6 C-7 2 -7 2 -6 0 C-2.49056604 -1.24528302 -2.49056604 -1.24528302 0 0 Z " fill="#3D2D31" transform="translate(37,44)"/>
</svg>
